<svg width="40" height="41" viewBox="0 0 40 41" fill="none" xmlns="http://www.w3.org/2000/svg">
<path d="M29.3333 9.87488H32M12 1.87488H28C30.829 1.87488 33.5421 2.99868 35.5425 4.99907C37.5429 6.99946 38.6667 9.71257 38.6667 12.5415V28.5415C38.6667 31.3705 37.5429 34.0836 35.5425 36.084C33.5421 38.0844 30.829 39.2082 28 39.2082H12C9.17103 39.2082 6.45793 38.0844 4.45754 36.084C2.45715 34.0836 1.33334 31.3705 1.33334 28.5415V12.5415C1.33334 9.71257 2.45715 6.99946 4.45754 4.99907C6.45793 2.99868 9.17103 1.87488 12 1.87488ZM20 28.5415C17.8783 28.5415 15.8434 27.6987 14.3432 26.1984C12.8429 24.6981 12 22.6633 12 20.5415C12 18.4198 12.8429 16.385 14.3432 14.8847C15.8434 13.3844 17.8783 12.5415 20 12.5415C22.1217 12.5415 24.1566 13.3844 25.6569 14.8847C27.1572 16.385 28 18.4198 28 20.5415C28 22.6633 27.1572 24.6981 25.6569 26.1984C24.1566 27.6987 22.1217 28.5415 20 28.5415Z" stroke="#FBB88C" stroke-width="2.66667"/>
</svg>
