<svg width="40" height="41" viewBox="0 0 40 41" fill="none" xmlns="http://www.w3.org/2000/svg">
<path d="M34.1025 6.35398C32.2666 4.50471 30.0817 3.0386 27.6745 2.04078C25.2673 1.04297 22.6858 0.533335 20.08 0.541478C9.15751 0.541478 0.267509 9.43148 0.267509 20.3615C0.267509 23.854 1.18251 27.269 2.91501 30.269L0.102509 40.5415L10.61 37.784C13.5149 39.3663 16.7696 40.1965 20.0775 40.199H20.085C31.0075 40.199 39.905 31.309 39.905 20.379C39.9116 17.7741 39.4021 15.1937 38.4057 12.7868C37.4093 10.38 35.9459 8.19447 34.1 6.35648L34.1025 6.35398ZM20.085 36.854C17.1329 36.8545 14.235 36.0609 11.695 34.5565L11.0925 34.1965L4.85751 35.829L6.52251 29.7515L6.13251 29.1265C4.4769 26.5034 3.60199 23.4633 3.61001 20.3615C3.6153 15.9917 5.35405 11.8025 8.44466 8.71333C11.5353 5.62413 15.7252 3.88729 20.095 3.88398C24.4925 3.88398 28.635 5.60398 31.7425 8.71148C33.276 10.2394 34.4916 12.0562 35.3189 14.0566C36.1462 16.0571 36.5689 18.2017 36.5625 20.3665C36.555 29.459 29.165 36.854 20.085 36.854ZM29.1175 24.5115C28.625 24.2615 26.1875 23.0665 25.735 22.9015C25.2825 22.7365 24.9525 22.6515 24.6175 23.1515C24.29 23.644 23.3375 24.7615 23.0475 25.0965C22.7575 25.424 22.47 25.4715 21.9775 25.2215C21.485 24.9715 19.8825 24.449 17.9925 22.7615C16.5225 21.449 15.525 19.824 15.235 19.3315C14.945 18.839 15.2025 18.5665 15.455 18.324C15.6825 18.104 15.9475 17.7465 16.1975 17.4565C16.4475 17.1665 16.525 16.964 16.69 16.629C16.855 16.3015 16.775 16.0115 16.65 15.7615C16.525 15.5115 15.5325 13.074 15.1275 12.0815C14.73 11.1115 14.315 11.2465 14.01 11.229C13.72 11.214 13.3925 11.214 13.065 11.214C12.7375 11.214 12.1975 11.339 11.745 11.8315C11.2925 12.324 10.01 13.5265 10.01 15.964C10.01 18.4015 11.7825 20.754 12.0325 21.089C12.2825 21.4165 15.525 26.424 20.4925 28.5665C21.6725 29.074 22.595 29.379 23.3125 29.614C24.5 29.989 25.5775 29.934 26.43 29.809C27.3825 29.669 29.36 28.614 29.775 27.4565C30.19 26.299 30.19 25.309 30.065 25.104C29.9475 24.884 29.62 24.7615 29.12 24.509L29.1175 24.5115Z" fill="#FBB88C"/>
</svg>
