<svg width="600" height="400" viewBox="170 50 300 410" fill="none" xmlns="http://www.w3.org/2000/svg">
<path d="M81.3727 292.48C81.3727 292.48 10.9022 151.212 21.9633 106.057L21.9633 123.048L51.9062 187.71L192.69 292.48L310.556 278.565C310.556 278.565 232.414 287.569 205.786 228.636C179.159 169.703 244.257 87.8517 299.097 67.3889C353.937 46.9261 421.055 53.6762 469.347 67.3889C517.639 81.1016 587.213 128.777 607.676 201.625C628.139 274.473 599.491 369.56 535.647 412.801C471.803 456.042 360.006 466.594 255.716 435.719C151.425 404.844 81.3727 292.48 81.3727 292.48Z" fill="#0D1215"/>
<path fill-rule="evenodd" clip-rule="evenodd" d="M26.7648 154.175C21.0963 134.645 18.3051 117.244 21.1143 105.776L22.8117 106.336C20.0903 117.446 22.7786 134.534 28.4402 154.039C34.0917 173.509 42.6667 195.263 51.5958 215.625C60.5235 235.985 69.7977 254.937 76.8405 268.8C80.3618 275.731 83.3247 281.389 85.407 285.314C86.4481 287.276 87.269 288.805 87.8295 289.843C88.1097 290.362 88.3248 290.758 88.4697 291.025L88.6339 291.326L88.6753 291.401L88.6853 291.42L88.6872 291.423L88.6882 291.425L88.7292 291.497C88.7595 291.551 88.8051 291.631 88.8661 291.737C88.988 291.95 89.1712 292.267 89.415 292.683C89.9025 293.514 90.6324 294.74 91.599 296.311C93.5322 299.455 96.4121 303.985 100.194 309.518C107.759 320.585 118.93 335.662 133.351 351.7C162.208 383.794 203.993 419.64 255.858 434.994C359.924 465.803 471.433 455.249 535.05 412.162C566.83 390.637 589.886 356.179 602.44 317.99C614.994 279.8 617.022 237.95 606.836 201.686C586.474 129.196 517.225 81.7487 469.216 68.1161C421.051 54.4395 354.156 47.7257 299.542 68.1038C272.298 78.2695 242.411 103.739 222.66 134.049C202.893 164.384 193.425 199.337 206.584 228.46C219.73 257.554 245.559 269.885 268.229 274.957C279.571 277.495 290.097 278.207 297.792 278.283C301.638 278.321 304.773 278.2 306.943 278.07C308.028 278.005 308.872 277.938 309.442 277.887C309.728 277.862 309.945 277.841 310.09 277.826C310.162 277.818 310.216 277.813 310.252 277.809L310.292 277.804L310.301 277.803L310.303 277.803C310.303 277.803 310.303 277.803 310.36 277.974L310.556 278.564C310.808 279.326 310.807 279.326 310.806 279.326L310.791 279.328L310.746 279.333C310.728 279.335 310.708 279.337 310.684 279.34C310.652 279.343 310.615 279.347 310.572 279.351C310.419 279.367 310.194 279.389 309.901 279.415C309.314 279.467 308.453 279.536 307.349 279.602C305.142 279.734 301.963 279.856 298.068 279.818C290.28 279.741 279.606 279.02 268.084 276.442C245.026 271.283 218.47 258.649 204.988 228.81C191.519 199.001 201.286 163.562 221.121 133.122C240.973 102.657 271.055 76.9697 298.651 66.6726C353.718 46.1251 421.059 52.9115 469.478 66.6604C518.053 80.4533 587.952 128.358 608.515 201.563C618.791 238.147 616.727 280.264 604.112 318.64C591.497 357.017 568.307 391.722 536.243 413.439C472.172 456.833 360.088 467.385 255.572 436.443C203.147 420.923 161.034 384.74 132.067 352.523C117.575 336.406 106.352 321.258 98.751 310.138C94.9502 304.578 92.0541 300.024 90.1071 296.857C89.1336 295.274 88.3972 294.038 87.9036 293.196C87.6568 292.775 87.4707 292.453 87.3459 292.235C87.2836 292.127 87.2365 292.044 87.2049 291.988L87.1691 291.925L87.1599 291.909L87.1575 291.904C87.1568 291.903 87.1565 291.902 87.9207 291.661L87.1565 291.902L87.1523 291.895L87.9076 291.665C87.1523 291.895 87.152 291.894 87.1513 291.893L87.0959 291.792L86.9304 291.488C86.7845 291.22 86.5685 290.822 86.2873 290.302C85.725 289.26 84.902 287.727 83.8587 285.761C81.7723 281.829 78.8045 276.161 75.2781 269.22C68.2256 255.338 58.9364 236.355 49.992 215.958C41.0491 195.564 32.4434 173.738 26.7648 154.175Z" fill="white"/>
<path d="M277.926 279.527C273.344 263.625 282.521 247.021 298.422 242.439L495.016 185.798C510.917 181.216 527.521 190.393 532.103 206.294C536.684 222.196 527.508 238.8 511.606 243.382L315.013 300.023C299.112 304.605 282.507 295.428 277.926 279.527Z" fill="#FBB88C"/>
<path d="M489.116 217.624L487.557 212.213C487.375 211.584 486.921 211.142 485.361 211.592L481.787 212.621C480.05 213.122 479.561 214.925 480.018 216.511C480.504 218.197 482.069 219.654 484.309 219.009L489.116 217.624ZM481.102 228.219L479.685 228.6L479.678 228.575L479.703 228.568C482.018 227.901 481.663 221.843 485.05 219.313L484.119 219.581C481.167 220.405 479.07 218.801 478.511 216.863C478.004 215.101 478.776 213.052 481.268 212.335L489.8 209.876L489.822 209.952C489.696 209.988 488.47 210.369 488.844 211.76L492.245 223.564C492.585 224.747 493.783 224.457 493.959 224.406L493.984 224.399L493.999 224.449L489.896 225.631L489.882 225.581L489.907 225.573C490.083 225.523 491.277 225.124 490.871 223.715L489.522 219.033C489.29 218.228 488.524 218.312 487.743 218.537L487.718 218.544C485.277 219.248 484.542 222.185 483.38 225.246C482.496 227.572 482.36 227.857 481.102 228.219Z" fill="#0D1215"/>
<path d="M470.756 230.737C474.531 229.649 476.026 225.566 474.997 221.992C473.974 218.443 470.529 215.756 466.753 216.844C462.978 217.931 461.465 222.047 462.488 225.596C463.517 229.17 466.981 231.824 470.756 230.737ZM470.908 231.265C467.183 232.338 463.1 230.844 461.348 227.505C460.618 226.298 460.058 225.015 459.688 223.731C458.419 219.327 459.586 214.956 464.997 213.397L465.425 213.274C467.766 212.6 469.642 211.732 470.681 210.042C470.909 210.358 471.046 210.646 471.144 210.89L471.151 210.916C471.63 212.577 469.487 213.466 467.524 214.032C466.643 214.286 465.823 214.468 465.245 214.634L465.043 214.692C461.933 215.725 459.244 218.217 459.898 222.471C459.985 222.964 460.105 223.475 460.257 224.003C460.344 224.305 460.431 224.607 460.543 224.902C460.081 221.028 462.783 217.443 466.608 216.34C470.811 215.129 475.493 217.188 476.733 221.491C477.973 225.795 475.112 230.054 470.908 231.265Z" fill="#0D1215"/>
<path d="M454.646 236.005L454.57 236.027C450.579 237.122 446.619 234.257 445.524 230.456C444.393 226.53 446.29 222.331 450.367 221.156C452.884 220.431 455.742 221.079 457.73 223.341C458.426 224.149 459.076 225.461 459.431 226.504L447.048 230.071L447.164 230.474C448.419 234.828 451.85 236.047 454.529 235.412L454.68 235.368C456.593 234.817 458.506 232.849 457.934 230.86C457.883 230.684 457.814 230.54 457.738 230.371L457.882 230.303L459.076 231.894C458.422 233.881 456.634 235.432 454.646 236.005ZM457.628 226.015C456.488 223.099 453.759 220.724 450.512 221.659C447.266 222.595 446.219 226.058 446.805 229.133L457.628 226.015Z" fill="#0D1215"/>
<path d="M441.471 239.801C437.318 240.997 432.981 238.621 431.792 234.494C430.603 230.366 433.018 226.072 437.171 224.876C438.958 224.361 441.033 224.09 442.564 224.957L442.756 226.946L442.605 226.99L442.569 226.864C442.039 225.027 439.481 224.756 437.316 225.379C433.541 226.467 432.456 230.65 433.428 234.022C434.407 237.42 437.493 240.374 441.269 239.287C443.03 238.779 445.261 237.155 445.037 235.148L444.993 234.806L444.841 234.468L444.985 234.4L446.179 235.991C445.611 237.708 443.132 239.322 441.471 239.801Z" fill="#0D1215"/>
<path d="M424.434 244.464L420.18 245.69L420.166 245.639L420.191 245.632C420.342 245.589 421.561 245.183 421.148 243.748L418.762 235.468C418.61 234.939 418.397 234.674 418.206 234.674L418.156 234.689C418.055 234.718 417.969 234.797 417.897 234.927L411.937 245.366L412.213 246.323C412.626 247.757 413.874 247.452 414.025 247.409L414.05 247.401L414.064 247.452L409.811 248.677L409.796 248.627L409.822 248.62C409.973 248.576 411.191 248.171 410.778 246.736L407.471 235.259C407.058 233.824 405.81 234.129 405.659 234.173L405.634 234.18L405.62 234.13L409.873 232.904L409.888 232.955L409.862 232.962C409.711 233.005 408.493 233.411 408.906 234.846L411.553 244.032L417.986 232.775L417.841 232.271C417.428 230.837 416.18 231.142 416.029 231.185L416.004 231.193L415.989 231.142L420.243 229.917L420.257 229.967C420.257 229.967 418.855 230.398 419.297 231.934L422.604 243.411C422.981 244.719 424.042 244.523 424.344 244.436L424.419 244.414L424.434 244.464Z" fill="#0D1215"/>
<path d="M400.142 251.082C403.917 249.994 405.412 245.911 404.382 242.337C403.36 238.788 399.914 236.101 396.139 237.189C392.364 238.277 390.851 242.392 391.873 245.941C392.903 249.515 396.366 252.17 400.142 251.082ZM400.294 251.61C396.569 252.684 392.486 251.189 390.733 247.85C390.004 246.643 389.443 245.36 389.074 244.076C387.805 239.672 388.971 235.302 394.383 233.743L394.811 233.619C397.151 232.945 399.027 232.077 400.067 230.388C400.294 230.704 400.432 230.991 400.529 231.236L400.537 231.261C401.015 232.922 398.873 233.812 396.91 234.377C396.029 234.631 395.209 234.813 394.63 234.98L394.429 235.038C391.319 236.07 388.63 238.562 389.283 242.817C389.371 243.309 389.49 243.82 389.643 244.349C389.73 244.651 389.817 244.953 389.929 245.247C389.467 241.374 392.168 237.788 395.994 236.686C400.197 235.475 404.879 237.533 406.119 241.837C407.359 246.141 404.497 250.399 400.294 251.61Z" fill="#0D1215"/>
<path d="M383.054 256.032C386.83 254.944 388.342 250.829 387.32 247.28C386.29 243.706 382.827 241.051 379.052 242.139C375.276 243.227 373.756 247.317 374.786 250.891C375.808 254.44 379.279 257.12 383.054 256.032ZM383.199 256.535C379.097 257.717 374.534 255.788 373.162 251.686L371.853 252.063C370.317 252.506 370.168 253.121 370.349 253.75L371.604 258.105C371.981 259.413 373.042 259.217 373.344 259.13L373.419 259.108L373.434 259.158L369.212 260.402L369.198 260.351C369.299 260.322 370.6 259.92 370.18 258.46L366.866 246.958C366.445 245.498 365.129 245.85 365.028 245.879L365.014 245.829L369.242 244.611L369.257 244.661C369.257 244.661 367.855 245.092 368.297 246.628L369.762 251.712L372.94 250.823C372.082 246.709 374.88 242.796 378.907 241.636C383.11 240.425 387.791 242.483 389.031 246.787C390.271 251.091 387.403 255.324 383.199 256.535Z" fill="#0D1215"/>
<path d="M352.048 267.173L351.746 267.26L351.724 267.185L352.001 267.105C354.73 266.264 356.691 263.137 355.364 258.531L353.326 251.459C352.797 249.622 351.265 249.981 350.988 250.061L350.938 250.075L350.887 249.899L363.748 246.194L363.763 246.244C363.763 246.244 362.436 246.844 362.879 248.38L366.135 259.68C366.512 260.989 367.573 260.792 367.85 260.713L367.925 260.691L367.94 260.741L363.661 261.974L363.646 261.924L363.672 261.916C363.823 261.873 365.041 261.467 364.628 260.033L361.365 248.707C361.147 247.952 360.794 247.672 359.712 247.984L356.314 248.963C355.106 249.311 354.632 249.747 354.987 250.98L357.032 258.078C358.439 262.961 355.597 266.151 352.048 267.173Z" fill="#0D1215"/>
<path d="M342.405 267.744C346.155 266.663 347.668 262.548 346.645 258.999C345.615 255.425 342.152 252.77 338.402 253.851C334.627 254.939 333.107 259.029 334.136 262.603C335.159 266.152 338.63 268.832 342.405 267.744ZM342.55 268.247C338.347 269.458 333.665 267.4 332.425 263.096C331.185 258.792 334.047 254.533 338.25 253.322C342.453 252.111 347.117 254.202 348.357 258.506C349.597 262.81 346.753 267.036 342.55 268.247Z" fill="#0D1215"/>
<path d="M333.443 270.681L329.164 271.913L329.149 271.863L329.175 271.856C329.326 271.812 330.544 271.407 330.131 269.972L326.868 258.646C326.65 257.891 326.297 257.611 325.215 257.923L321.138 259.098C320.081 259.402 319.93 259.827 320.148 260.582L323.411 271.908C323.824 273.343 325.047 273.045 325.198 273.002L325.223 272.994L325.238 273.045L320.959 274.277L320.945 274.227L321.02 274.205C321.322 274.118 322.325 273.72 321.948 272.412L318.692 261.111C318.25 259.576 316.782 259.78 316.782 259.78L316.768 259.73L329.251 256.133L329.266 256.184C329.266 256.184 327.94 256.784 328.382 258.319L331.638 269.62C332.015 270.929 333.076 270.732 333.353 270.652L333.428 270.63L333.443 270.681Z" fill="#0D1215"/>
</svg>
