<svg width="40" height="41" viewBox="0 0 40 41" fill="none" xmlns="http://www.w3.org/2000/svg">
<path fill-rule="evenodd" clip-rule="evenodd" d="M12 3.20817C9.52465 3.20817 7.15068 4.1915 5.40034 5.94184C3.65 7.69218 2.66667 10.0661 2.66667 12.5415V28.5415C2.66667 31.0169 3.65 33.3908 5.40034 35.1412C7.15068 36.8915 9.52465 37.8748 12 37.8748H28C30.4754 37.8748 32.8493 36.8915 34.5997 35.1412C36.35 33.3908 37.3333 31.0169 37.3333 28.5415V12.5415C37.3333 10.0661 36.35 7.69218 34.5997 5.94184C32.8493 4.1915 30.4754 3.20817 28 3.20817H12ZM3.51472 4.05622C5.76516 1.80579 8.8174 0.541504 12 0.541504H28C31.1826 0.541504 34.2348 1.80579 36.4853 4.05622C38.7357 6.30666 40 9.35891 40 12.5415V28.5415C40 31.7241 38.7357 34.7763 36.4853 37.0268C34.2348 39.2772 31.1826 40.5415 28 40.5415H12C8.8174 40.5415 5.76516 39.2772 3.51472 37.0268C1.26428 34.7763 0 31.7241 0 28.5415V12.5415C0 9.35891 1.26428 6.30666 3.51472 4.05622Z" fill="#FBB88C"/>
<path d="M19.8295 30.5415H13.2372V10.1779H20.0384C22.0336 10.1779 23.7472 10.5855 25.179 11.4009C26.6108 12.2096 27.7079 13.3729 28.4702 14.8909C29.2391 16.4023 29.6236 18.2153 29.6236 20.3298C29.6236 22.4511 29.2358 24.274 28.4602 25.7986C27.6913 27.3232 26.5776 28.4965 25.1193 29.3185C23.661 30.1338 21.8977 30.5415 19.8295 30.5415ZM16.3097 27.8568H19.6605C21.2116 27.8568 22.5009 27.5652 23.5284 26.9818C24.5559 26.3919 25.3248 25.5401 25.8352 24.4264C26.3456 23.3062 26.6009 21.9406 26.6009 20.3298C26.6009 18.7323 26.3456 17.3767 25.8352 16.2631C25.3314 15.1494 24.5791 14.3043 23.5781 13.7276C22.5772 13.1509 21.3343 12.8625 19.8494 12.8625H16.3097V27.8568Z" fill="#FBB88C"/>
</svg>
