<svg width="865" height="207" viewBox="0 0 865 207" fill="none" xmlns="http://www.w3.org/2000/svg">
<path d="M504.299 178.099C509.328 178.099 513.518 182.08 513.518 187.319C513.518 192.348 509.328 196.329 504.299 196.329C499.27 196.329 495.079 192.348 495.079 187.319C495.079 182.08 499.27 178.099 504.299 178.099Z" fill="white"/>
<path d="M444.454 59.5H490.553C476.932 59.5 468.341 71.6533 468.341 90.3022V150.859C468.341 209.111 372.372 216.445 372.372 144.992V72.9105C372.372 65.9957 366.924 60.1286 360.01 59.7095L356.867 59.5H402.965L399.822 59.7095C392.698 60.1286 387.459 65.9957 387.459 72.9105V144.573C387.459 208.063 466.665 205.549 466.665 147.925V90.3022C466.665 71.8628 457.655 59.5 444.454 59.5Z" fill="white"/>
<path d="M339.404 193.186C349.043 193.186 357.844 173.489 360.777 164.27L359.101 194.862H263.761L267.114 194.653C274.028 194.234 279.476 188.366 279.476 181.452V72.9105C279.476 65.9957 274.028 60.1286 267.114 59.7095L263.761 59.5H310.069L306.716 59.7095C299.802 60.1286 294.563 65.9957 294.563 72.9105V193.186H339.404Z" fill="white"/>
<path d="M197.854 196.329C110.686 196.329 110.686 58.0332 197.854 58.0332C285.023 58.0332 285.023 196.329 197.854 196.329ZM197.854 59.2904C131.85 59.2904 131.85 195.072 197.854 195.072C263.859 195.072 263.859 59.2904 197.854 59.2904Z" fill="white"/>
<path d="M548.282 156.726C548.911 155.05 549.539 153.583 550.377 151.907C555.825 139.544 561.902 127.39 568.607 115.447C578.246 98.4741 588.094 81.711 599.2 65.3669C607.581 53.0041 616.173 40.6413 626.23 28.6976C629.583 24.7164 633.355 20.5256 637.546 16.9634C639.641 15.2871 641.527 14.4489 643.622 14.4489C644.67 14.4489 645.927 14.6585 647.184 15.2871C648.023 15.9157 648.651 16.7539 648.232 18.0111V18.4302C647.813 19.897 647.394 21.1542 646.556 22.4114C643.832 27.8594 640.689 33.0979 637.755 38.5459C634.612 43.7844 631.678 49.0229 628.954 54.4709C628.745 54.89 628.535 55.5186 628.116 55.9377C627.697 56.5663 627.278 56.9854 626.44 56.9854C625.602 56.7758 625.183 56.3567 625.392 55.3091C625.392 54.89 625.811 54.2614 626.021 53.6327C628.954 46.0893 632.936 38.7555 636.288 31.2121C636.498 30.5834 636.707 30.1644 636.917 29.5357V28.9071C636.079 29.5357 635.45 30.3739 634.822 31.2121C628.116 39.1745 622.04 47.7656 615.963 56.1472C606.743 68.9291 598.152 81.9205 589.98 95.1215C589.561 95.7501 588.933 96.3787 588.723 97.2169C588.723 97.4264 588.723 97.6359 588.723 97.8455C588.933 98.055 589.142 98.055 589.561 98.055C589.98 98.055 590.818 97.8455 591.447 97.8455C597.733 96.5882 604.229 95.1215 610.305 92.8165C611.982 92.3975 613.03 91.5593 614.077 90.3021C626.859 74.7962 640.06 59.4998 653.89 44.6226C665.205 32.0502 677.148 20.316 689.721 8.79139C691.816 6.90554 694.54 5.01969 697.055 3.34337C698.94 2.29568 701.036 1.45752 703.131 1.45752H703.76C706.484 1.87659 707.741 3.76244 707.113 6.69599C706.065 10.6772 703.969 14.6585 701.874 18.2206C688.464 39.8032 672.12 58.8712 651.166 74.5866C640.689 82.5491 629.374 88.6258 617.849 93.4452C615.125 94.4929 613.03 95.7501 611.353 98.055C607.162 103.503 602.762 108.741 598.571 113.98C597.943 114.818 597.524 115.447 597.524 115.866C597.314 116.285 597.733 116.704 598.781 117.752C607.791 125.924 617.011 134.096 625.392 143.315C632.098 150.649 639.012 158.193 644.67 166.784C648.023 171.603 650.956 176.632 653.051 182.08C654.309 185.223 655.147 188.576 654.937 192.348C654.937 192.976 654.728 193.814 654.518 194.443C653.89 197.167 652.213 199.472 649.489 201.567C645.089 204.71 640.479 205.758 635.869 205.968C633.774 206.177 631.888 206.177 630.212 206.177C621.411 206.177 613.239 204.71 605.277 202.405C592.076 198.634 580.551 193.186 569.864 185.642C565.045 182.29 560.435 178.518 556.244 174.537C556.244 174.118 555.825 173.908 555.406 173.699C555.197 173.489 554.778 173.28 554.568 173.28C554.149 173.28 553.939 173.489 553.52 173.908C552.473 175.165 551.635 176.213 550.587 177.261C549.749 178.099 548.911 178.937 547.863 179.566C546.815 180.194 545.977 180.404 544.929 180.404C543.463 180.404 542.205 179.356 542.415 177.47C542.415 176.423 542.415 175.584 542.624 174.537L543.672 169.927C544.091 168.46 544.51 166.993 545.139 165.527C545.348 165.107 545.348 164.898 545.558 164.479C545.767 163.222 545.348 162.383 544.72 161.336C540.948 156.726 538.015 151.487 535.71 146.039C532.986 139.963 531.1 133.467 530.471 126.343C530.471 122.99 530.681 119.428 531.519 115.866C531.728 114.818 532.147 113.77 532.567 112.723C534.662 106.437 539.062 102.036 545.139 99.1027C545.767 98.8932 546.606 98.6836 547.234 98.6836H548.072C548.701 98.8932 548.911 99.1027 548.701 99.5218C548.701 99.7313 548.491 99.9409 548.282 100.15C547.653 100.569 547.444 100.779 547.025 100.989C540.948 104.132 537.595 108.951 536.338 114.399C536.129 115.237 535.919 116.075 535.919 116.914C534.662 123.619 535.291 129.905 536.967 135.772C539.272 143.106 542.624 150.021 547.025 156.097C547.444 156.307 547.444 156.726 548.282 156.726ZM633.983 203.034C635.869 202.825 637.965 203.034 640.06 202.405C644.041 201.358 646.556 199.262 647.394 195.91C647.394 195.281 647.603 194.652 647.603 193.814C648.023 189.414 646.765 185.852 645.089 182.29C640.27 171.813 633.774 162.593 626.44 154.002C616.801 142.687 606.324 132.419 595.428 122.362C595.219 121.942 594.8 121.733 594.171 121.314C593.961 121.104 593.961 121.104 593.752 121.104C593.333 121.104 593.123 121.314 592.704 121.733C592.076 122.152 591.866 122.571 591.447 122.99C580.551 137.448 569.864 152.326 558.968 166.993C558.549 167.622 558.13 168.041 558.13 168.46C557.921 169.089 558.13 169.298 558.968 170.136C561.692 172.86 564.626 175.165 567.35 177.68C581.18 188.785 597.314 196.748 615.544 201.148C620.782 202.196 626.23 203.034 632.098 203.034H633.983ZM618.897 89.2544C619.735 89.2544 620.154 88.8353 620.782 88.6258C635.66 81.711 649.28 72.2817 661.433 60.5475C668.557 53.4232 675.263 46.0893 681.339 38.3364C687.835 30.1644 693.912 21.7828 698.731 12.9822C699.779 10.8868 700.826 9.21046 701.245 7.11508L701.455 6.27692C701.665 5.43876 701.665 5.01969 701.245 5.01969C701.036 5.01969 700.617 5.22922 700.198 5.43876C698.521 6.27692 696.845 7.53415 695.169 8.79139C690.768 12.3535 686.578 16.3348 682.387 20.1065C671.7 30.1644 661.223 40.6413 651.585 51.3278C645.089 58.2426 639.012 65.3669 632.726 72.4912C628.116 77.9393 623.297 83.5968 618.268 89.2544H618.897ZM552.682 162.174C552.263 163.222 553.101 163.85 553.52 164.479C554.359 165.527 554.987 166.155 555.406 166.155C556.035 166.155 556.454 165.317 557.711 163.85C567.14 151.278 576.57 138.706 585.789 125.924C587.256 124.038 588.513 122.152 590.19 120.266C590.399 119.847 590.818 119.428 590.818 119.009C591.028 118.59 590.818 117.961 590.399 117.542C587.675 115.028 585.161 112.513 582.437 109.999C582.227 109.58 581.808 109.58 581.599 109.58C581.18 109.58 580.76 109.999 580.341 110.418C579.713 111.675 579.294 112.723 578.456 113.98C570.493 127.6 562.531 141.22 555.825 155.469C554.568 157.564 553.52 159.869 552.682 162.174ZM608.21 97.4264C608.001 97.4264 608.001 97.2169 607.791 97.0073C606.324 97.4264 604.438 98.055 602.972 98.2645C597.733 99.5218 592.704 100.569 587.675 101.617C585.999 102.036 585.37 102.455 585.161 103.293C584.951 103.713 585.161 104.341 585.789 105.179C588.094 108.322 590.818 110.837 593.752 113.351C594.171 113.77 594.381 113.98 594.8 113.98C595.219 113.98 595.428 113.561 596.266 112.723C598.571 109.58 601.086 106.227 603.81 103.084C605.067 101.198 606.743 99.3122 608.21 97.4264ZM548.282 174.956C549.33 174.327 549.958 173.489 550.587 172.651C551.425 171.813 551.844 171.184 551.844 170.765C552.054 170.136 551.425 169.508 550.168 169.089C549.33 170.346 548.911 171.394 548.701 172.651C548.491 173.489 548.282 174.118 548.282 174.956Z" opacity=".7" fill="#FBB88C"/>
<path d="M783.065 114.399V116.076H767.35V114.399H783.065ZM842.994 193.186C852.632 193.186 861.433 173.489 864.367 164.27L862.69 194.862H767.35L770.703 194.653C777.617 194.234 783.065 188.366 783.065 181.452V72.9105C783.065 65.9957 777.617 60.1286 770.703 59.7095L767.35 59.5H858.919L860.595 90.0927C857.661 80.873 848.861 61.1763 839.012 61.1763H798.152V114.399H827.488C837.336 114.399 844.251 106.646 847.394 97.4266V133.258C844.251 123.828 837.336 116.076 827.488 116.076H798.152V193.186H842.994Z" fill="white"/>
<path d="M681.365 114.399V116.076H665.65V114.399H681.365ZM741.293 193.186C750.932 193.186 759.733 173.489 762.666 164.27L760.99 194.862H665.65L669.003 194.653C675.917 194.234 681.365 188.366 681.365 181.452V72.9105C681.365 65.9957 675.917 60.1286 669.003 59.7095L665.65 59.5H757.218L758.895 90.0927C755.961 80.873 747.161 61.1763 737.312 61.1763H696.452V114.399H725.788C735.636 114.399 742.551 106.646 745.694 97.4266V133.258C742.551 123.828 735.636 116.076 725.788 116.076H696.452V193.186H741.293Z" fill="white"/>
<path d="M105.185 15.0775C101.204 16.1252 97.642 17.3825 94.0799 18.8492C87.5841 21.1542 81.0884 24.0877 74.8023 28.069C73.3355 28.9071 71.8687 29.9548 70.821 31.212C69.9829 32.0502 69.5638 32.8884 69.3543 33.517C69.1447 34.7742 69.7733 35.8219 71.2401 36.4505C72.2878 36.6601 73.3355 36.8696 74.1737 37.2887C75.0118 37.4982 75.6404 37.7078 76.0595 38.1268C76.4786 38.1268 76.6881 38.5459 76.4786 38.965C76.4786 39.3841 76.0595 39.5936 75.4309 39.8031C75.0118 40.0127 74.3832 40.0127 73.9641 40.0127H73.3355C70.6115 39.1745 67.8875 38.5459 65.5826 37.0791C64.7444 36.6601 64.1158 36.0314 63.4872 35.1933C62.8585 34.1456 62.649 32.8884 62.8585 31.8407C63.2776 30.793 63.9062 29.7453 64.9539 28.6976C66.6302 26.3926 68.9352 24.7163 71.4496 23.2496C80.0407 18.0111 89.0509 14.2394 98.0611 11.3058C103.719 9.62952 109.376 7.95322 115.034 6.48644C119.015 5.22921 123.206 4.81012 127.397 3.97198C134.521 2.5052 141.645 1.4575 148.77 0.82888C154.008 0.200271 159.456 -0.00927734 164.695 -0.00927734C168.466 -0.00927734 172.238 -0.00927734 175.8 0.409808C182.924 1.03843 189.839 2.29566 196.125 4.60058C202.412 6.90552 207.86 10.2581 211.631 15.4966C215.193 20.5256 216.241 25.9736 214.565 32.2597C214.146 34.3551 213.517 36.241 212.469 38.3364C210.164 43.1558 207.231 47.9752 203.25 52.1659C196.335 59.7093 188.582 66.4146 180.2 72.4912C169.723 80.4537 158.618 87.578 147.512 94.0738C131.587 103.503 115.034 111.465 98.4802 118.38C84.2315 124.457 69.7733 129.276 55.3151 133.677C49.448 135.353 43.3714 136.82 37.5043 138.286C35.828 138.496 34.7803 139.334 33.9422 140.801C28.4941 152.116 22.8366 163.222 18.8554 174.746C17.8077 177.68 16.76 180.823 15.9218 183.756C15.5027 185.433 15.0837 187.319 15.0837 188.995C15.0837 189.833 15.0837 190.462 14.8741 191.3C15.0837 193.605 15.5027 195.91 18.0172 196.748C18.2267 196.957 18.4363 197.167 18.4363 197.586L18.2267 198.005C18.2267 198.424 17.3886 198.634 16.9695 198.843H16.3409C15.9218 198.843 15.5027 198.843 15.0837 198.634C12.5692 198.005 11.1024 196.538 10.4738 194.024C9.63564 191.3 10.0547 188.366 10.4738 185.223L11.3119 181.661C13.4073 173.489 16.5504 165.527 19.903 157.564L26.8178 142.477C27.2369 141.849 27.4465 141.22 27.4465 141.01C27.4465 140.591 27.4465 140.382 27.0274 140.382C26.6083 140.382 26.1892 140.382 25.3511 140.591C21.5794 141.01 17.5981 141.43 14.036 141.43C12.3596 141.43 10.8929 141.43 9.4261 141.22C6.91163 141.01 4.6067 140.382 2.30177 139.125C0.41592 138.077 -0.422236 136.191 0.206381 133.886C0.41592 133.048 0.625459 132.419 1.04454 131.581C2.30177 129.276 4.18762 127.181 6.28301 125.295C6.70209 124.876 7.54025 124.457 8.16886 124.457H9.00702C9.4261 124.457 9.63564 124.457 9.84517 124.876C9.84517 125.086 9.84517 125.086 9.84517 125.295C9.84517 125.714 9.21656 126.133 9.00702 126.552C7.95932 127.81 6.70209 129.067 5.86393 130.324C5.02578 131.581 4.6067 132.629 4.39716 133.467C3.76854 135.982 5.02578 137.658 8.16886 138.496C9.84517 138.915 11.731 139.125 13.6169 139.125C15.0837 139.125 16.5504 138.915 18.0172 138.915C21.1603 138.706 24.0938 138.286 27.2369 137.658C28.7037 137.448 29.7514 136.82 30.5895 135.353C33.104 129.905 36.0375 124.457 38.7616 119.009C46.724 103.713 55.3151 88.8353 64.5349 73.958C69.7733 65.3669 75.2213 56.9853 80.8789 48.3942C88.0032 37.7078 95.5466 27.4403 103.719 17.1729C104.138 16.7539 104.766 16.1252 105.185 15.0775ZM102.252 31.6311C101.833 32.2597 101.623 32.6788 101.204 33.0979C94.0799 42.5271 87.3746 52.3755 80.8789 62.0143C65.1635 85.0636 50.9148 108.741 38.3425 132.838C37.7139 133.886 37.2948 134.515 37.2948 134.934C37.0852 135.353 37.2948 135.562 37.7139 135.562C38.1329 135.562 38.7616 135.353 39.8093 135.143C40.0188 134.934 40.2283 134.934 40.4379 134.934C50.4957 132.419 60.5536 129.276 70.6115 125.714C83.3934 121.314 96.3848 116.285 109.167 110.208C126.349 102.036 143.322 92.3974 159.666 81.5014C169.933 74.7962 179.572 67.2528 188.372 58.6617C194.03 53.2136 199.059 47.5561 202.831 40.8508C204.507 37.9173 205.764 35.1933 206.393 32.2597C207.021 29.7453 207.231 27.2308 207.021 24.7163C206.393 17.3825 202.202 12.7726 195.916 9.62952C190.468 6.90552 184.391 5.85783 177.895 5.22921C174.543 4.81012 170.981 4.60058 167.419 4.60058C163.018 4.60058 158.408 5.01967 153.589 5.43874C143.322 6.48644 133.054 8.16275 122.368 10.4677C120.482 10.8868 119.015 11.9345 117.967 13.8203C114.196 19.8969 109.167 25.5545 106.024 31.8407C105.605 32.6788 104.976 33.0979 104.347 33.0979C103.928 33.0979 103.719 32.8884 103.3 32.6788C102.88 32.4693 102.88 32.0502 102.252 31.6311Z" opacity=".7" fill="#FBB88C"/>
</svg>